<?xml version="1.0" encoding="UTF-8"?>
<svg id="Layer_1" data-name="Layer 1" xmlns="http://www.w3.org/2000/svg" viewBox="0 0 89.45 69.57">
  <defs>
    <style>
      .cls-1 {
        fill: #222;
      }

      .cls-2 {
        fill: rgba(126, 134, 158, .25);
      }
    </style>
  </defs>
  <path class="cls-2" d="M0,14.91C0,10.28,0,7.96,.76,6.14,1.77,3.7,3.7,1.77,6.14,.76c1.83-.76,4.14-.76,8.77-.76h11.64c4.06,0,6.09,0,7.92,.76,1.83,.76,3.26,2.19,6.14,5.07l9.09,9.09v14.91H0V14.91Z"/>
  <path class="cls-1" d="M0,30.81c0-5.57,0-8.35,1.08-10.48,.95-1.87,2.47-3.39,4.34-4.34,2.13-1.08,4.91-1.08,10.48-1.08h57.65c5.57,0,8.35,0,10.48,1.08,1.87,.95,3.39,2.47,4.34,4.34,1.08,2.13,1.08,4.91,1.08,10.48v22.86c0,5.57,0,8.35-1.08,10.48-.95,1.87-2.47,3.39-4.34,4.34-2.13,1.08-4.91,1.08-10.48,1.08H15.9c-5.57,0-8.35,0-10.48-1.08-1.87-.95-3.39-2.47-4.34-4.34-1.08-2.13-1.08-4.91-1.08-10.48V30.81Z"/>
</svg>